<svg width="80" height="81" viewBox="0 0 80 81" fill="none" xmlns="http://www.w3.org/2000/svg">
<path d="M39.5139 11.8145C28.8133 11.8145 20.1111 20.5242 20.1111 31.2359C20.1111 41.9365 28.8132 50.6387 39.5139 50.6387C50.2262 50.6387 58.9353 41.9366 58.9353 31.2359C58.9353 20.5274 50.2255 11.8145 39.5139 11.8145ZM39.5139 47.4995C30.5438 47.4995 23.2424 40.1986 23.2424 31.228C23.2424 22.2464 30.5433 14.938 39.5139 14.938C48.4955 14.938 55.8039 22.2503 55.8039 31.228C55.8077 40.2058 48.4954 47.4995 39.5139 47.4995Z" fill="#006478"/>
<path d="M67.0181 26.2069C66.3482 25.7169 65.8198 25.3264 65.5365 24.6372C65.1077 23.5652 65.3757 22.9373 65.8275 21.8769C66.4094 20.5178 67.1981 18.6571 65.7165 16.0959C64.2349 13.5347 62.2556 13.2973 60.8046 13.1251C59.7134 12.9949 59.1162 12.8954 58.473 12.256C57.8413 11.6167 57.7341 10.9849 57.6116 9.92449C57.4432 8.48493 57.202 6.50564 54.6408 5.03551C52.0795 3.55391 50.2189 4.34638 48.8522 4.92449C47.7725 5.3839 47.1217 5.66338 46.0306 5.17334C45.3721 4.88238 45.0007 4.37319 44.5222 3.72232C43.6876 2.56611 42.516 0.96582 39.5145 0.96582C36.5359 0.96582 35.3644 2.56611 34.5145 3.72614C34.0436 4.37698 33.6646 4.88617 33.0138 5.17716C31.9226 5.65572 31.2641 5.38772 30.1922 4.92831C28.8331 4.34638 26.9609 3.55011 24.4112 5.02785C21.85 6.49798 21.6126 8.47727 21.4404 9.91682C21.3102 10.9773 21.2107 11.6167 20.579 12.2484C19.9396 12.8877 19.3079 12.9987 18.2398 13.1174C16.7888 13.2859 14.8095 13.5271 13.3279 16.0883C11.8578 18.6495 12.6579 20.5101 13.236 21.8577C13.6878 22.9182 13.9672 23.5576 13.5346 24.6181C13.2437 25.3187 12.723 25.7092 12.053 26.1992C10.8815 27.0607 9.28125 28.2398 9.28125 31.2184C9.28125 34.1701 10.893 35.357 12.0607 36.2375C12.9795 36.9266 13.4696 37.3286 13.6724 38.2896C13.8409 39.1012 13.6227 39.6794 13.213 40.6212C12.6426 41.9497 11.8539 43.7719 13.324 46.3332C14.8133 48.9136 16.7927 49.1318 18.2436 49.304C19.2352 49.4151 19.8248 49.5031 20.4143 50.0047C21.1953 50.6746 21.3025 51.3063 21.4442 52.474C21.4633 52.6845 21.4939 52.9028 21.5361 53.1325L13.324 74.5033C13.0943 75.0929 13.2436 75.7629 13.703 76.2032C14.1624 76.6434 14.8439 76.7545 15.422 76.4941L21.8117 73.6458L24.66 80.0355C24.9089 80.6059 25.4716 80.9658 26.0918 80.9658H26.1301C26.7618 80.9467 27.3207 80.5562 27.5505 79.9551L35.3108 59.7144C36.1416 60.6255 37.3513 61.4755 39.5107 61.4755C41.6814 61.4755 42.9027 60.6256 43.7297 59.7144L51.49 79.9551C51.7197 80.5447 52.2787 80.9467 52.9103 80.9658H52.9486C53.5688 80.9658 54.1278 80.6059 54.3804 80.0355L57.2288 73.6458L63.6185 76.4941C64.2004 76.7545 64.8781 76.6358 65.3374 76.2032C65.7968 75.7629 65.9461 75.0929 65.7164 74.5033L57.5273 53.1403C57.5579 52.9221 57.5886 52.7001 57.6077 52.501C57.7494 51.3295 57.8566 50.6901 58.6376 50.0316C59.2387 49.5225 59.8167 49.4421 60.8083 49.3234C62.2478 49.1626 64.2271 48.9329 65.7087 46.364C67.1903 43.8027 66.4093 41.9842 65.8389 40.6519C65.4407 39.7101 65.2072 39.1435 65.3871 38.3204C65.5862 37.3595 66.0763 36.9613 66.9989 36.2683C68.1704 35.3992 69.7783 34.1971 69.7783 31.2492C69.7783 28.2477 68.1782 27.0683 67.0181 26.2069ZM25.9848 75.3113L24.0361 70.9392C23.6877 70.1506 22.7573 69.7906 21.9648 70.1506L17.5928 72.0993L23.4618 56.7893C23.7337 57.0075 24.0323 57.2181 24.3807 57.421C26.9305 58.9102 28.7911 58.1216 30.1502 57.5397C31.1686 57.1109 31.8386 56.8199 32.899 57.2411L25.9848 75.3113ZM61.4483 72.0915L57.0762 70.1428C56.2875 69.7944 55.3572 70.1428 55.005 70.9315L53.0563 75.3035L46.1268 57.2219C47.1872 56.8008 47.8572 57.0917 48.8756 57.5205C50.2347 58.1024 52.0954 58.8911 54.6375 57.4095C54.9859 57.2104 55.2883 56.9884 55.5563 56.7701L61.4483 72.0915ZM65.1274 33.7377C64.1359 34.4766 62.7768 35.4874 62.3288 37.6466C61.9306 39.4766 62.4973 40.8051 62.9605 41.8771C63.4505 43.018 63.6994 43.5884 62.9988 44.7867C62.3097 45.9966 61.6895 46.0655 60.4566 46.2071C59.3464 46.3373 57.9681 46.4866 56.6052 47.6389C54.8555 49.1281 54.645 50.8587 54.4957 52.1297C54.3464 53.3893 54.266 54.0209 53.0639 54.71C51.8733 55.4106 51.2837 55.1618 50.1045 54.6488C48.8833 54.1281 47.2141 53.4198 44.9553 54.3272C44.3044 54.5875 43.8067 54.9283 43.3741 55.2958C43.2056 55.4068 43.0525 55.5447 42.9453 55.7054C42.5739 56.096 42.2753 56.4941 42.0035 56.854C41.2723 57.8456 40.9047 58.3433 39.5035 58.3433C38.1253 58.3433 37.7538 57.8417 37.0227 56.8617C36.7509 56.5018 36.4522 56.0998 36.0809 55.7131C35.9699 55.5523 35.8205 55.403 35.6406 55.292C35.2195 54.9206 34.7103 54.5837 34.0594 54.3234C33.2708 54.0018 32.551 53.8831 31.9002 53.8831C30.6789 53.8831 29.6988 54.3042 28.8987 54.6449C27.7195 55.1465 27.1299 55.3953 25.9278 54.6947C24.7295 54.0056 24.6568 53.3738 24.5075 52.1143C24.3582 50.8547 24.1591 49.1243 22.398 47.6236C21.0466 46.475 19.6683 46.3219 18.5466 46.1918C17.3062 46.0501 16.686 45.9812 15.9853 44.7714C15.2962 43.5731 15.545 43.0026 16.0351 41.8617C16.4945 40.8013 17.065 39.4728 16.6859 37.6504C16.2342 35.4797 14.875 34.4689 13.8758 33.73C12.8652 32.9797 12.3559 32.6007 12.3559 31.2186C12.3559 29.8173 12.8574 29.4498 13.8451 28.7185C14.6951 28.0983 15.7555 27.3173 16.3757 25.7974C17.2946 23.5156 16.5863 21.8465 16.0541 20.6174C15.545 19.4383 15.2923 18.8487 15.9852 17.6466C16.6744 16.4482 17.3061 16.3679 18.5465 16.2262C19.7065 16.0846 21.3068 15.897 22.7464 14.446C24.1667 13.0142 24.3581 11.4368 24.496 10.2845C24.6453 9.04405 24.7142 8.42385 25.9278 7.73466C27.1262 7.03405 27.7272 7.29438 28.9179 7.79591C30.1698 8.33572 31.8887 9.06699 34.228 8.0371C35.6484 7.40541 36.3987 6.38702 36.9998 5.56777C37.7196 4.58768 38.0795 4.08617 39.4806 4.08617C40.8895 4.08617 41.2494 4.57621 41.9806 5.56777C42.5817 6.38706 43.332 7.39779 44.7524 8.02946C47.0916 9.05933 48.8144 8.32808 50.0625 7.78827C51.2531 7.27908 51.8542 7.0264 53.0526 7.72701C54.2509 8.41613 54.3236 9.03631 54.4729 10.2768C54.6146 11.4254 54.8022 13.0066 56.2226 14.4384C57.6544 15.8894 59.2548 16.077 60.4147 16.2186C61.6551 16.3679 62.2829 16.4368 62.976 17.6389C63.6766 18.8373 63.4162 19.4306 62.9147 20.6175C62.394 21.8388 61.6743 23.508 62.6046 25.7897C63.2248 27.2982 64.2852 28.0791 65.1352 28.6994C66.1267 29.4307 66.6244 29.7982 66.6244 31.1994C66.6474 32.6083 66.1496 32.9874 65.1274 33.7377Z" fill="#006478"/>
<path d="M44.2961 24.6291C43.6261 23.0479 42.8758 21.4898 42.0067 19.8703C41.4976 18.9284 40.5175 18.3389 39.4455 18.3389C38.3735 18.3389 37.3934 18.9208 36.8842 19.8703C36.0228 21.4705 35.2227 23.1397 34.5029 24.8511C32.9944 25.0004 31.3636 25.2109 29.4416 25.5019C28.3619 25.6933 27.5005 26.4322 27.1522 27.4735C26.8038 28.534 27.0603 29.6442 27.872 30.4521C29.212 31.773 30.4026 32.9024 31.5435 33.9208C31.1147 35.7623 30.774 37.6229 30.5251 39.4797C30.4064 40.5517 30.8467 41.5586 31.6736 42.1597C32.5236 42.8105 33.6147 42.9292 34.6139 42.4889C36.264 41.75 37.8834 40.8886 39.4455 39.92C41.0075 40.8886 42.6269 41.7615 44.2846 42.5004C44.6751 42.6689 45.0848 42.7607 45.483 42.7607C46.0917 42.7607 46.6928 42.5693 47.1829 42.1903C48.0328 41.5701 48.473 40.5593 48.3544 39.4605C48.1132 37.6191 47.7724 35.7585 47.3437 33.9284C48.653 32.7493 49.9432 31.528 51.1951 30.2799C51.957 29.518 52.2365 28.4001 51.9264 27.3894C51.6163 26.348 50.8047 25.59 49.725 25.3603C47.9869 24.9966 46.1683 24.7592 44.2961 24.6291ZM44.5679 32.2095C44.1277 32.6 43.9362 33.201 44.0894 33.7715C44.5679 35.6705 44.9508 37.6 45.2111 39.4912C43.5304 38.7217 41.8918 37.8028 40.3221 36.7692C40.0618 36.6008 39.7632 36.5089 39.4607 36.5089C39.1621 36.5089 38.8596 36.6008 38.5993 36.7692C37.0296 37.8106 35.3795 38.7179 33.7103 39.4912C33.9707 37.5923 34.3497 35.6628 34.832 33.7715C34.9737 33.2011 34.7938 32.6 34.342 32.2095C33.1016 31.1183 31.842 29.9507 30.3911 28.5303C32.4201 28.2317 34.1315 28.0211 35.7432 27.8795C36.3328 27.8297 36.842 27.4507 37.0641 26.8994C37.7724 25.1192 38.584 23.3771 39.4645 21.708C40.3642 23.4078 41.1261 25.0463 41.7961 26.708C42.0258 27.2784 42.5656 27.6574 43.1743 27.6881C45.0961 27.78 46.9645 27.9982 48.714 28.3389C47.3549 29.6789 45.9654 30.9767 44.5679 32.2095Z" fill="#006478"/>
</svg>
