<svg width="81" height="81" viewBox="0 0 81 81" fill="none" xmlns="http://www.w3.org/2000/svg">
<path d="M39.5532 36.0652L39.5513 36.0633C35.3078 31.8199 32.9613 26.1654 32.9613 20.1499C32.9613 14.1467 35.3079 8.49226 39.5513 4.24924L39.5532 36.0652ZM39.5532 36.0652C39.8069 36.3056 40.1294 36.4405 40.4793 36.4405C40.8181 36.4405 41.1527 36.2922 41.3929 36.0653L41.393 36.0654L41.395 36.0633C45.6508 31.8075 47.985 26.1655 47.985 20.1499C47.985 14.1472 45.6384 8.49265 41.395 4.24924C40.8838 3.73801 40.0625 3.73802 39.5513 4.24924L39.5532 36.0652ZM35.5718 20.1503C35.5718 15.2802 37.3122 10.6901 40.4793 7.06823C43.6464 10.6902 45.3868 15.2802 45.3868 20.1503C45.3868 25.0205 43.6464 29.6107 40.4792 33.2326C37.3002 29.6107 35.5718 25.0207 35.5718 20.1503Z" fill="#006478" stroke="#006478" stroke-width="0.2"/>
<path d="M40.4913 33.7224L40.4914 33.7244C40.5314 34.4199 41.0928 34.9717 41.7916 34.9742L41.8062 34.9888L41.8504 34.9867C47.4419 34.7246 52.7086 32.4031 56.6776 28.4341C60.9335 24.1903 63.28 18.536 63.28 12.508C63.28 11.7818 62.7009 11.2027 61.9747 11.2027C55.7597 11.2027 49.9806 13.6742 45.712 18.1674L45.711 18.1684C45.2278 18.692 45.24 19.5122 45.7649 20.0106C46.2902 20.5219 47.1118 20.4942 47.609 19.9701C51.0693 16.3256 55.6498 14.1795 60.6256 13.8574C60.3046 18.6735 58.2818 23.1426 54.8345 26.5777L54.8343 26.5778C51.3236 30.089 46.6753 32.1411 41.7303 32.3638C41.0144 32.3909 40.4644 33.0111 40.4913 33.7224Z" fill="#006478" stroke="#006478" stroke-width="0.2"/>
<path d="M39.1081 34.974L39.1081 34.9741H39.1125H39.1622C39.8501 34.9741 40.4267 34.4347 40.4669 33.7119C40.5073 32.9974 39.9421 32.3784 39.2279 32.3513C34.2828 32.1287 29.6223 30.0765 26.1112 26.5654C22.6885 23.1423 20.6658 18.6613 20.3447 13.8453C25.3083 14.1794 29.8887 16.3135 33.3613 19.9701C33.8585 20.4942 34.6797 20.5217 35.2049 20.0235C35.7291 19.5263 35.7566 18.705 35.2584 18.1798L35.2582 18.1797C30.9778 13.6867 25.211 11.2027 18.9956 11.2027C18.2694 11.2027 17.6903 11.7818 17.6903 12.508C17.6903 18.5233 20.0244 24.1779 24.2679 28.4214L24.3386 28.3507L24.2679 28.4214C28.237 32.3902 33.5039 34.7244 39.1081 34.974Z" fill="#006478" stroke="#006478" stroke-width="0.2"/>
<path d="M39.1742 53.7365C39.1742 54.4627 39.7532 55.0418 40.4794 55.0418C41.2056 55.0418 41.7847 54.4627 41.7847 53.7365V35.1232C41.7847 34.397 41.2056 33.818 40.4794 33.818C39.7532 33.818 39.1742 34.397 39.1742 35.1232V53.7365Z" fill="#006478" stroke="#006478" stroke-width="0.2"/>
<path d="M47.6985 65.8414L47.6985 65.8425C47.7252 66.5376 48.2966 67.1004 48.992 67.1067C48.9931 67.1072 48.9946 67.1078 48.9962 67.1087L49.0191 67.1201L49.0447 67.1192C49.7578 67.0922 50.3224 66.5002 50.309 65.7748L50.3089 65.774L50.1474 59.7476L50.1474 59.7473C50.0493 56.5101 52.0357 53.5795 55.0893 52.4635L57.8839 51.445C57.884 51.445 57.8842 51.4449 57.8844 51.4448C58.8182 51.1167 59.626 50.599 60.3195 49.9055L67.2157 43.0093C67.9474 42.2776 69.0138 42.0144 69.9959 42.3376C70.4174 42.4821 70.7765 42.698 71.0878 43.0093L71.1585 42.9386L71.0878 43.0093C71.6035 43.5249 71.891 44.2202 71.891 44.9391C71.891 45.6706 71.6033 46.3658 71.0878 46.8813L63.5455 54.4236C63.0342 54.9348 63.0343 55.7561 63.5455 56.2673C64.0566 56.7786 64.8779 56.7785 65.3892 56.2673L72.9315 48.725C73.9321 47.7244 74.4889 46.382 74.5016 44.9399V44.939C74.5016 43.5079 73.9315 42.1656 72.9315 41.1655C72.3238 40.5578 71.6143 40.1271 70.8045 39.8614L70.804 39.8612C68.8798 39.2409 66.8028 39.7347 65.372 41.1655L58.4769 48.0607C58.4767 48.0609 58.4765 48.0611 58.4763 48.0613C58.0515 48.4738 57.5542 48.7891 56.9962 48.9953C56.9961 48.9953 56.9961 48.9954 56.996 48.9954L54.2007 50.0141C50.0972 51.5071 47.4115 55.4479 47.537 59.8152L47.6985 65.8414Z" fill="#006478" stroke="#006478" stroke-width="0.2"/>
<path d="M66.2845 65.7908L66.2854 65.7915C66.5272 65.993 66.8357 66.1005 67.1322 66.1005C67.4972 66.1005 67.8564 65.9385 68.133 65.6751L68.1334 65.6754L68.14 65.6676L75.3096 57.2803L75.3097 57.2802C78.9175 53.0488 80.7031 47.6671 80.3035 42.1113L79.3468 28.5678L79.3468 28.5675C79.2581 27.3635 78.751 26.2475 77.9013 25.3978L77.8306 25.4685L77.9013 25.3978C76.8744 24.371 75.4543 23.8382 74.0083 23.9523C71.447 24.1426 69.4688 26.2225 69.4054 28.7962L69.4054 28.7962L69.1073 41.0717C69.1072 41.0719 69.1072 41.0722 69.1072 41.0724C69.0807 41.7869 69.6592 42.3916 70.3724 42.4056C71.1398 42.4321 71.6918 41.8501 71.7054 41.1273C71.7054 41.1272 71.7054 41.1271 71.7054 41.127L72.0036 28.8508L72.0036 28.8503C72.0274 27.6351 72.9683 26.6456 74.1848 26.5499C74.8892 26.5023 75.5565 26.7529 76.0452 27.2416C76.4384 27.6349 76.6886 28.1713 76.7243 28.7428L76.7244 28.7436L77.6811 42.2873L77.6811 42.2873C78.0273 47.1446 76.4702 51.8651 73.3062 55.5729L66.1368 63.9474L66.1367 63.9475C65.6657 64.4992 65.7333 65.3203 66.2845 65.7908Z" fill="#006478" stroke="#006478" stroke-width="0.2"/>
<path d="M46.1453 76.8283L46.1453 76.8281L45.6483 67.8196L45.6483 67.8193C45.5584 66.0869 46.8803 64.6112 48.6125 64.5085L48.6129 64.5085L67.7475 63.4399C67.7475 63.4399 67.7476 63.4399 67.7477 63.4399C68.6077 63.3886 69.4168 63.6842 70.0453 64.2613C70.6741 64.8387 71.0331 65.6217 71.0716 66.4801L71.0716 66.4812L71.3823 75.6387C71.3823 75.6388 71.3823 75.6388 71.3823 75.6389L71.3823 75.6391L71.2823 75.6425C71.3072 76.3011 70.7853 76.8602 70.1143 76.8851L46.1453 76.8283ZM46.1453 76.8283C46.1856 77.5275 46.7638 78.0657 47.4504 78.0657L47.4525 78.0657C47.4634 78.0657 47.4822 78.0657 47.5002 78.0632C47.5102 78.0618 47.5257 78.0589 47.5425 78.0516L46.1453 76.8283ZM68.7718 75.7207C68.7983 76.4356 69.3575 77.0646 70.1215 76.9849L47.5126 77.9533C48.1836 77.916 48.693 77.3444 48.6557 76.6859L48.7556 76.6803L48.7556 76.6802L48.2586 67.6729C48.2487 67.3917 48.4681 67.14 48.7615 67.1187C48.7618 67.1186 48.762 67.1186 48.7623 67.1186L67.8928 66.0502C68.0816 66.051 68.2188 66.1338 68.2825 66.1858C68.3511 66.2548 68.4506 66.3684 68.4612 66.5634C68.4612 66.5637 68.4612 66.564 68.4612 66.5643L68.7718 75.7204L68.7718 75.7207Z" fill="#006478" stroke="#006478" stroke-width="0.2"/>
<path d="M31.9143 67.1065L31.9143 67.1065C31.1899 67.0796 30.6234 66.4883 30.6501 65.7608C30.6501 65.7606 30.6501 65.7605 30.6501 65.7603L30.8116 59.7349C30.8974 56.4975 28.9108 53.5667 25.8697 52.4508C25.8696 52.4508 25.8696 52.4508 25.8696 52.4507L23.074 51.432L23.0736 51.4318C22.1536 51.0915 21.3335 50.5744 20.6519 49.8928L20.7226 49.8221L20.6519 49.8928L13.7556 42.9966C13.0246 42.2656 11.9579 42.0135 10.9741 42.3253C10.5671 42.4571 10.1956 42.6846 9.88359 42.9966C9.88359 42.9966 9.88359 42.9966 9.88358 42.9966M31.9143 67.1065L9.81288 46.9393C9.27856 46.4051 8.98035 45.6843 8.98035 44.9388C8.98035 44.1809 9.27857 43.4602 9.81288 42.9259L9.88358 42.9966M31.9143 67.1065H31.918H31.9553C32.6684 67.1065 33.246 66.5412 33.2729 65.8298L33.2729 65.8287L33.4344 59.8023L33.4344 59.8022C33.5473 55.4477 30.8743 51.5073 26.7709 50.0015L26.7707 50.0014L23.9754 48.9827L31.9143 67.1065ZM9.88358 42.9966C9.36809 43.5121 9.08034 44.2073 9.08034 44.9388C9.08034 45.6577 9.36791 46.353 9.88358 46.8686L9.88359 46.8686L17.4259 54.4109C17.9372 54.9222 17.9372 55.7435 17.4259 56.2546C16.9147 56.7658 16.0934 56.7659 15.5822 56.2546L8.03988 48.7123C7.03985 47.7123 6.46982 46.3699 6.46982 44.9388V44.9379H6.46983C6.48248 43.4958 7.03933 42.1534 8.03988 41.1528C8.64763 40.5451 9.35708 40.1145 10.1669 39.8487L10.1674 39.8485C12.0912 39.2283 14.1808 39.7218 15.5995 41.153L9.88358 42.9966ZM22.4956 48.049L15.5997 41.1532L23.975 48.9826L23.9752 48.9826C23.4161 48.776 22.9069 48.4604 22.4956 48.049Z" fill="#006478" stroke="#006478" stroke-width="0.2"/>
<path d="M12.8311 65.6429L12.8308 65.6426L5.66127 57.2679L5.66125 57.2679C2.04078 53.0356 0.267761 47.6545 0.667268 42.0989L1.62401 28.5554L1.62404 28.555C1.71274 27.3638 2.21962 26.2351 3.06979 25.3975C4.09653 24.3709 5.51656 23.8382 6.96254 23.9523C9.52373 24.1426 11.502 26.2226 11.5654 28.7962L11.5654 28.7962L11.8636 41.0731L11.8636 41.0736C11.877 41.7993 11.3118 42.3921 10.585 42.4056L10.5832 42.4057L10.5583 42.4056C9.85873 42.4056 9.26671 41.8412 9.25308 41.1274C9.25308 41.1273 9.25308 41.1272 9.25308 41.1271L8.95489 28.8513C8.95488 28.8512 8.95488 28.851 8.95488 28.8509C8.91891 27.6341 7.98892 26.6453 6.77313 26.5499L6.77236 26.5499C6.08247 26.4904 5.40283 26.752 4.91327 27.2416L4.84256 27.1709L4.91327 27.2416C4.50789 27.647 4.26985 28.1709 4.23411 28.7428L4.23406 28.7436L3.27731 42.2873L3.2773 42.2873C2.93126 47.1442 4.48824 51.8646 7.65213 55.5728L12.8311 65.6429ZM12.8311 65.6429C13.0867 65.9389 13.4625 66.1 13.8262 66.1C14.1356 66.1 14.4316 65.9928 14.673 65.7916L14.6739 65.7908C15.2251 65.3203 15.2927 64.4992 14.8218 63.9475L14.8217 63.9474L7.65224 55.5729L12.8311 65.6429Z" fill="#006478" stroke="#006478" stroke-width="0.2"/>
<path d="M33.4403 78.0653L33.4403 78.0655H33.446H33.5081C34.1947 78.0655 34.7729 77.5272 34.8132 76.8281L34.8132 76.8278L35.3103 67.8194L35.3103 67.8191C35.4001 66.0875 34.0789 64.5983 32.3455 64.5083C32.3454 64.5083 32.3453 64.5083 32.3453 64.5083L13.2107 63.4397L13.2107 63.4396L13.2097 63.4396C12.3644 63.4012 11.543 63.683 10.9137 64.2607C10.272 64.8384 9.91264 65.6345 9.88693 66.4811C9.88693 66.4812 9.88693 66.4812 9.88693 66.4813L9.5763 75.6389H9.57629L9.57626 75.6404C9.56288 76.3511 10.1123 76.9564 10.8379 76.9847C11.5865 77.0511 12.1602 76.4381 12.1868 75.7205L12.1868 75.7202L12.4974 66.5634C12.5082 66.3755 12.613 66.2506 12.6727 66.2008C12.7358 66.1482 12.8621 66.0632 13.0658 66.0624L32.1979 67.1309L32.1979 67.1309L32.1999 67.131C32.4923 67.1414 32.7208 67.3922 32.7001 67.6825L32.7 67.6841L32.203 76.6925H32.203L32.2029 76.6943C32.176 77.4062 32.7262 78.0249 33.4403 78.0653Z" fill="#006478" stroke="#006478" stroke-width="0.2"/>
</svg>
