<svg width="81" height="82" viewBox="0 0 81 82" fill="none" xmlns="http://www.w3.org/2000/svg">
<path d="M67.1213 56.8845C61.2462 54.9983 59.812 50.8513 57.8273 45.1111C57.037 42.8244 54.9368 36.7486 49.0324 36.7486H42.2763C46.7866 35.7807 50.1788 31.765 50.1788 26.9697C50.1788 21.4542 45.6916 16.9671 40.1761 16.9671C34.6606 16.9671 30.1735 21.4542 30.1735 26.9697C30.1735 31.765 33.5657 35.7807 38.076 36.7486H32.0436C26.1392 36.7486 24.039 42.8236 23.2487 45.1111C21.264 50.8513 19.8298 54.9983 13.9547 56.8845C11.4194 57.6979 10.019 60.4224 10.8333 62.9576C11.4904 65.0036 13.3917 66.3108 15.4341 66.3108C15.6313 66.3108 15.8302 66.2948 16.0291 66.27C13.4156 67.5079 11.6023 70.1702 11.6023 73.2489C11.6023 77.5043 15.0638 80.9658 19.3192 80.9658H60.2063C64.4617 80.9658 67.9241 77.5043 67.9241 73.2489C67.9241 68.9935 64.4617 65.532 60.2063 65.532C60.0962 65.532 59.987 65.5462 59.8813 65.5746L53.6572 67.2423C51.6494 64.5126 51.7337 61.5999 51.8403 57.9785C51.8572 57.4013 51.8749 56.8072 51.8847 56.1945C52.4903 57.3427 53.1803 58.4438 54 59.4793C56.4163 62.5296 59.6478 64.6271 64.1713 66.079C65.3995 66.4733 66.7075 66.3659 67.854 65.7762C69.0013 65.1866 69.8502 64.1858 70.2436 62.9576C71.0571 60.4224 69.6566 57.6979 67.1213 56.8845ZM32.683 26.9697C32.683 22.8387 36.0442 19.4775 40.1752 19.4775C44.3063 19.4775 47.6675 22.8387 47.6675 26.9697C47.6675 31.1008 44.3063 34.462 40.1752 34.462C36.0442 34.462 32.683 31.1017 32.683 26.9697ZM27.1551 67.5869L19.6433 65.5738C19.5377 65.5453 19.4284 65.5311 19.3183 65.5311C18.9613 65.5311 18.6106 65.5578 18.266 65.6048C22.0854 64.1805 24.9102 62.2135 27.0761 59.4793C27.8957 58.4438 28.5866 57.3436 29.1913 56.1945C29.2011 56.8072 29.218 57.4013 29.2357 57.9776C29.3503 61.8796 29.4355 64.7665 27.1551 67.5869ZM14.111 73.2489C14.111 70.4303 16.3621 68.1268 19.162 68.0442L34.9137 72.265L29.0865 73.8261C27.3327 74.2959 26.1889 76.008 26.426 77.808C26.4553 78.0318 26.5051 78.2485 26.5734 78.4563H19.3192C16.4465 78.4563 14.111 76.1199 14.111 73.2489ZM60.3617 68.0433C63.1608 68.1268 65.4128 70.4295 65.4128 73.248C65.4128 76.119 63.0764 78.4554 60.2054 78.4554H30.0261C29.456 78.4554 28.988 78.0451 28.9134 77.4794C28.8388 76.9138 29.1851 76.397 29.7357 76.2495L60.3617 68.0433ZM67.8531 62.1904C67.6639 62.78 67.2563 63.2605 66.7058 63.5437C66.1552 63.827 65.5265 63.8785 64.9368 63.6894C56.3843 60.9436 54.1136 56.095 51.6254 49.0113C51.3963 48.3595 50.7347 47.9705 50.0536 48.0869C49.3716 48.2032 48.877 48.7893 48.877 49.4802C48.877 49.5601 48.8841 49.6391 48.8992 49.7173C49.4817 52.7454 49.4044 55.3686 49.3299 57.9057C49.2268 61.4107 49.1309 64.7488 51.0935 67.9297L39.7614 70.9658L29.7526 68.284C31.9513 64.9939 31.8509 61.5368 31.7444 57.9057C31.6698 55.3686 31.5925 52.7454 32.1751 49.7173C32.1902 49.6391 32.1973 49.5601 32.1973 49.4802C32.1973 48.7893 31.7026 48.2032 31.0206 48.0869C30.3386 47.9705 29.678 48.3595 29.4489 49.0113C26.9606 56.095 24.6899 60.9436 16.1374 63.6894C15.5478 63.8785 14.9191 63.827 14.3685 63.5437C13.8179 63.2605 13.4103 62.78 13.2212 62.1904C13.032 61.6008 13.0835 60.9729 13.3668 60.4215C13.6501 59.8709 14.1305 59.4633 14.7201 59.2741C21.7897 57.0044 23.5639 51.8725 25.6188 45.9307C27.2137 41.3166 29.1949 39.2582 32.0419 39.2582H49.0306C51.8776 39.2582 53.8588 41.3157 55.4536 45.9307C57.5085 51.8725 59.2828 57.0035 66.3523 59.2741C66.942 59.4633 67.4224 59.8709 67.7057 60.4215C67.9907 60.972 68.0422 61.6008 67.8531 62.1904ZM38.9205 10.0041V2.22059C38.9205 1.52794 39.4826 0.96582 40.1752 0.96582C40.8679 0.96582 41.43 1.52794 41.43 2.22059V10.0041C41.43 10.6967 40.8679 11.2589 40.1752 11.2589C39.4826 11.2589 38.9205 10.6967 38.9205 10.0041ZM21.2462 7.82312C20.8999 7.22281 21.105 6.45556 21.7053 6.10924C22.3056 5.76291 23.0729 5.96893 23.4192 6.56834L27.3105 13.3084C27.6568 13.9087 27.4517 14.676 26.8514 15.0223C26.6534 15.136 26.4376 15.191 26.2253 15.191C25.7911 15.191 25.3702 14.9664 25.1375 14.5632L21.2462 7.82312ZM8.2811 19.7981C8.62743 19.1978 9.39468 18.9918 9.99498 19.339L16.7351 23.2303C17.3354 23.5766 17.5414 24.3447 17.1942 24.9442C16.9615 25.3464 16.5397 25.572 16.1063 25.572C15.8932 25.572 15.6774 25.5178 15.4803 25.4033L8.74021 21.512C8.13991 21.1656 7.93477 20.3984 8.2811 19.7981ZM12.5383 39.6205H4.75477C4.06212 39.6205 3.5 39.0583 3.5 38.3657C3.5 37.673 4.06212 37.1109 4.75477 37.1109H12.5383C13.2309 37.1109 13.793 37.673 13.793 38.3657C13.793 39.0583 13.2309 39.6205 12.5383 39.6205ZM53.1368 12.947L57.0281 6.20692C57.3744 5.60662 58.1417 5.40059 58.742 5.74781C59.3423 6.09414 59.5483 6.86228 59.2011 7.46169L55.3098 14.2018C55.0771 14.604 54.6553 14.8296 54.222 14.8296C54.0088 14.8296 53.793 14.7754 53.5959 14.6609C52.9965 14.3145 52.7905 13.5473 53.1368 12.947ZM63.5186 24.3181C63.1723 23.7178 63.3775 22.9505 63.9778 22.6042L70.7178 18.7129C71.3181 18.3666 72.0854 18.5726 72.4317 19.172C72.778 19.7723 72.5729 20.5396 71.9726 20.8859L65.2325 24.7772C65.0345 24.8909 64.8187 24.9459 64.6065 24.9459C64.1722 24.9459 63.7504 24.7204 63.5186 24.3181ZM77.5751 37.642C77.5751 38.3346 77.013 38.8967 76.3204 38.8967H68.5368C67.8442 38.8967 67.2821 38.3346 67.2821 37.642C67.2821 36.9493 67.8442 36.3872 68.5368 36.3872H76.3204C77.013 36.3872 77.5751 36.9484 77.5751 37.642Z" fill="#006478" stroke="#006478" stroke-width="0.5"/>
</svg>
